<?xml version="1.0" standalone="no"?>
<!DOCTYPE svg PUBLIC "-//W3C//DTD SVG 20010904//EN"
 "http://www.w3.org/TR/2001/REC-SVG-20010904/DTD/svg10.dtd">
<svg version="1.0" xmlns="http://www.w3.org/2000/svg"
 width="256.000000pt" height="256.000000pt" viewBox="0 0 256.000000 256.000000"
 preserveAspectRatio="xMidYMid meet">
<metadata>
Created by potrace 1.11, written by Peter Selinger 2001-2013
</metadata>
<g transform="translate(0.000000,256.000000) scale(0.100000,-0.100000)"
fill="#000000" stroke="none">
<path d="M1252 2548 c-6 -7 -13 -56 -16 -108 -2 -52 -5 -96 -5 -96 -1 -1 -14
-7 -29 -13 -56 -23 -83 -136 -44 -186 15 -18 18 -38 16 -87 -7 -181 -16 -376
-18 -403 -7 -62 -20 -180 -21 -185 -1 -3 -5 -30 -9 -60 -26 -186 -78 -381
-114 -429 -42 -53 -45 -60 -31 -77 10 -13 4 -33 -39 -117 -29 -56 -66 -123
-82 -149 -27 -43 -34 -48 -68 -48 -59 0 -67 -11 -67 -84 0 -56 -4 -70 -30
-105 -37 -49 -243 -254 -305 -303 l-45 -36 -131 0 c-153 0 -176 -5 -172 -35
l3 -22 1230 0 1230 0 3 22 c4 30 -22 36 -148 36 l-105 -1 -55 45 c-78 63 -192
176 -264 260 l-62 71 2 61 c2 73 -10 91 -67 91 -45 0 -55 13 -147 189 -46 86
-53 107 -43 122 14 24 16 20 -20 65 -30 37 -47 71 -54 104 -2 8 -8 35 -15 60
-34 128 -70 347 -85 515 -7 78 -17 281 -19 384 -1 77 2 98 16 116 38 48 10
163 -44 186 -15 6 -28 12 -29 13 0 0 -3 44 -6 96 -2 52 -9 101 -15 108 -6 6
-27 12 -48 12 -21 0 -42 -6 -48 -12z m62 -264 c9 -3 16 -16 16 -29 0 -13 7
-25 15 -29 17 -6 11 -31 -14 -59 -12 -14 -15 -40 -13 -115 2 -98 12 -336 16
-382 10 -102 19 -187 21 -200 1 -8 6 -35 10 -60 3 -25 9 -58 11 -75 22 -136
77 -340 98 -364 9 -10 16 -30 16 -46 0 -52 161 -356 208 -392 9 -7 28 -13 44
-13 27 0 28 -2 28 -51 0 -43 5 -58 33 -92 60 -77 178 -199 277 -284 l34 -31
-131 1 -131 0 -13 40 c-7 22 -35 64 -62 93 -134 147 -429 205 -702 138 -84
-20 -192 -76 -241 -124 -37 -36 -84 -114 -84 -139 0 -6 -51 -10 -125 -9 -69 0
-125 3 -125 5 0 3 45 48 100 100 55 52 129 130 165 174 62 73 66 82 67 129 0
49 1 50 29 50 39 0 65 29 133 150 71 125 116 225 116 258 0 14 6 33 14 41 19
20 58 156 85 291 32 161 38 207 56 410 8 88 17 286 17 383 1 83 -2 101 -19
120 -19 22 -21 57 -2 57 5 0 9 11 9 24 0 13 6 27 13 29 6 3 13 6 14 6 1 1 8
-2 17 -5z m147 -2008 c37 -8 93 -28 126 -45 64 -32 138 -105 145 -145 l5 -24
-434 0 c-238 0 -435 4 -438 8 -6 10 26 66 59 101 38 40 134 88 210 104 81 18
245 18 327 1z"/>
<path d="M1187 827 c-10 -7 -30 -48 -46 -92 -15 -44 -37 -103 -49 -131 -32
-79 -34 -79 199 -82 177 -3 203 -1 220 14 17 15 17 19 2 53 -8 20 -31 79 -50
131 -19 52 -41 101 -50 108 -23 17 -203 16 -226 -1z m179 -147 l32 -90 -99 0
-98 0 26 68 c14 37 28 77 31 90 3 18 11 22 41 22 l36 0 31 -90z"/>
</g>
</svg>
